<?xml version="1.0" encoding="UTF-8" standalone="no"?>
<!-- Created with Inkscape (http://www.inkscape.org/) -->

<svg
   xmlns:dc="http://purl.org/dc/elements/1.1/"
   xmlns:cc="http://creativecommons.org/ns#"
   xmlns:rdf="http://www.w3.org/1999/02/22-rdf-syntax-ns#"
   xmlns:svg="http://www.w3.org/2000/svg"
   xmlns="http://www.w3.org/2000/svg"
   xmlns:sodipodi="http://sodipodi.sourceforge.net/DTD/sodipodi-0.dtd"
   xmlns:inkscape="http://www.inkscape.org/namespaces/inkscape"
   id="svg2"
   version="1.1"
   inkscape:version="0.91 r13725"
   width="243"
   height="49"
   viewBox="0 0 243 49"
   sodipodi:docname="new-f.svg">
  <metadata
     id="metadata8">
    <rdf:RDF>
      <cc:Work
         rdf:about="">
        <dc:format>image/svg+xml</dc:format>
        <dc:type
           rdf:resource="http://purl.org/dc/dcmitype/StillImage" />
        <dc:title></dc:title>
      </cc:Work>
    </rdf:RDF>
  </metadata>
  <defs
     id="defs6" />
  <sodipodi:namedview
     pagecolor="#ffffff"
     bordercolor="#666666"
     borderopacity="1"
     objecttolerance="10"
     gridtolerance="10"
     guidetolerance="10"
     inkscape:pageopacity="0"
     inkscape:pageshadow="2"
     inkscape:window-width="1366"
     inkscape:window-height="739"
     id="namedview4"
     showgrid="false"
     inkscape:zoom="2"
     inkscape:cx="197.3749"
     inkscape:cy="87.909062"
     inkscape:window-x="0"
     inkscape:window-y="0"
     inkscape:window-maximized="1"
     inkscape:current-layer="svg2"
     showguides="true"
     inkscape:guide-bbox="true">
    <sodipodi:guide
       position="2.9765625,47.078125"
       orientation="0,1"
       id="guide4195" />
    <sodipodi:guide
       position="88.52093,0.66291261"
       orientation="0,1"
       id="guide4281" />
    <sodipodi:guide
       position="163,153"
       orientation="0,1"
       id="guide4355" />
  </sodipodi:namedview>
  <flowRoot
     xml:space="preserve"
     id="flowRoot4193"
     style="font-style:normal;font-weight:normal;font-size:45px;line-height:125%;font-family:Sans;letter-spacing:0px;word-spacing:0px;fill:#000000;fill-opacity:1;stroke:none;stroke-width:1px;stroke-linecap:butt;stroke-linejoin:miter;stroke-opacity:1"
     transform="translate(0,-801)"><flowRegion
       id="flowRegion4195"><rect
         id="rect4197"
         width="226.66368"
         height="257.22507"
         x="352.72943"
         y="298.62149" /></flowRegion><flowPara
       id="flowPara4199" /></flowRoot>  <path
     inkscape:connector-curvature="0"
     style="font-style:normal;font-variant:normal;font-weight:normal;font-stretch:normal;font-size:14.70238972px;line-height:125%;font-family:Philosopher;-inkscape-font-specification:Philosopher;letter-spacing:0px;word-spacing:0px;fill:#000000;fill-opacity:1;stroke:none;stroke-width:1px;stroke-linecap:butt;stroke-linejoin:miter;stroke-opacity:1"
     d="m 21.305039,45.29256 c 4.254449,-0.0472 8.083339,-1.30224 11.488335,-3.76568 3.388481,-2.41625 5.785879,-5.63125 7.189908,-9.64263 1.833496,-5.2384 1.577062,-10.332809 -0.768378,-15.285729 C 36.822267,11.629084 32.981992,8.217662 27.696404,6.367652 21.848673,4.320889 16.263499,4.853344 10.93882,7.962121 l -0.0079,0.01378 c 0,0 -7.174152,-4.136345 -10.18738,-6.057161 l -0.0176,1.85e-4 0.261623,23.549336 c 0.04679,4.254446 1.302237,8.083346 3.765679,11.488336 2.399731,3.43567 5.606572,5.8545 9.617955,7.25853 2.123683,0.74331 4.434741,1.10339 6.933607,1.07746 z m 0.09932,-10.04653 c -1.156523,0.01238 -2.35398,-0.19853 -3.592794,-0.63213 -2.029279,-0.71027 -3.633228,-1.88153 -4.810678,-3.51205 -2.045791,-2.78204 -2.490694,-5.823591 -1.334437,-9.127085 0.908486,-2.595605 2.606063,-4.492351 5.090787,-5.688675 2.468199,-1.149127 4.99868,-1.269702 7.594278,-0.361216 1.88771,0.660724 3.460128,1.847227 4.715447,3.557977 2.04579,2.782045 2.498828,5.80021 1.359085,9.056509 -0.677239,1.93491 -1.871875,3.53071 -3.582625,4.78603 -1.698956,1.25944 -3.511523,1.90002 -5.439063,1.92064 z"
     id="text4156-6-3-6" />
  <path
     inkscape:connector-curvature="0"
     style="font-style:normal;font-variant:normal;font-weight:normal;font-stretch:normal;font-size:14.70238972px;line-height:125%;font-family:Philosopher;-inkscape-font-specification:Philosopher;letter-spacing:0px;word-spacing:0px;fill:#000000;fill-opacity:1;stroke:none;stroke-width:1px;stroke-linecap:butt;stroke-linejoin:miter;stroke-opacity:1"
     d="m 59.551809,4.706053 c -4.254712,0.0024 -8.096602,1.217074 -11.527345,3.644531 -3.413723,2.380442 -5.844839,5.570025 -7.291016,9.566407 -1.888537,5.218806 -1.68575,10.315633 0.607422,15.292969 2.340189,4.99435 6.144338,8.44601 11.410157,10.35156 5.825862,2.10821 11.416332,1.63458 16.773442,-1.41797 l 0.008,-0.0137 c 0,0 7.13021,4.21164 10.12305,6.16407 l 0.0176,0 -0.0137,-23.550785 c -0.002,-4.254703 -1.21707,-8.096608 -3.64453,-11.527344 -2.36343,-3.460739 -5.54463,-5.913198 -9.54101,-7.359375 -2.11574,-0.765623 -4.42288,-1.150017 -6.92188,-1.150391 z m -0.20508,10.044922 c 1.15659,-2.02e-4 2.35176,0.223308 3.58594,0.669922 2.02169,0.731595 3.61322,1.919669 4.77344,3.5625 2.01639,2.803423 2.42925,5.849486 1.23828,9.140625 -0.93576,2.585894 -2.65321,4.464668 -5.15039,5.634768 -2.48016,1.12308 -5.01177,1.21701 -7.59766,0.28125 -1.880652,-0.68056 -3.440492,-1.88355 -4.677732,-3.607424 -2.016386,-2.803424 -2.437631,-5.826191 -1.26367,-9.070313 0.69757,-1.927667 1.90894,-3.51081 3.63281,-4.748047 1.71212,-1.24149 3.531332,-1.862945 5.458982,-1.863281 z"
     id="text4156-6-3-7" />
  <path
     style="font-style:normal;font-weight:normal;font-size:76.52566528px;line-height:125%;font-family:Sans;letter-spacing:0px;word-spacing:0px;fill:#000000;fill-opacity:1;stroke:none;stroke-width:1px;stroke-linecap:butt;stroke-linejoin:miter;stroke-opacity:1"
     d="m 81.377145,1.9345887 0,41.8370533 7.490239,4.598494 0,-41.957081 z"
     id="text4228"
     inkscape:connector-curvature="0"
     sodipodi:nodetypes="ccccc" />
  <path
     style="opacity:1;fill:#000000;fill-opacity:1;stroke:none;stroke-width:1.39999998;stroke-linecap:round;stroke-linejoin:round;stroke-miterlimit:4;stroke-dasharray:none;stroke-opacity:1"
     d="m 172.99416,1.8007812 0,46.5332028 68.88472,0 0,-46.5332028 -68.88472,0 z m 62.7132,4.0700391 4.27582,0 0,3.6147777 -4.27582,0 0,-3.6147777 z m -60.71005,0.1383997 4.274,0 0,3.616598 -4.274,0 0,-3.616598 z m 10.25978,0.02185 4.27399,0 0,3.614778 -4.27399,0 0,-3.614778 z m 41.05549,0.0055 4.27582,0 0,3.614777 -4.27582,0 0,-3.614777 z m -30.90498,0.0091 4.27581,0 0,3.614778 -4.27581,0 0,-3.614778 z m 10.2616,0.02003 4.27399,0 0,3.614778 -4.27399,0 0,-3.614778 z m 10.27981,0.02914 4.27399,0 0,3.614777 -4.27399,0 0,-3.614777 z M 181.15974,16.6387 c 1.17284,-0.0276 2.2776,0.19372 3.31247,0.66286 l 0,2.959201 c -0.7589,-0.662316 -1.75924,-0.99247 -3.00108,-0.99247 -0.45534,0 -0.87746,0.116892 -1.26381,0.351462 -0.59332,0.358755 -0.88866,0.883471 -0.88866,1.573384 0,0.938281 0.68887,1.612878 2.06871,2.026826 0.24836,0.08279 0.73827,0.236309 1.46958,0.457082 1.24184,0.372553 2.13152,0.930256 2.66965,1.675363 0.55193,0.745105 0.8491,1.774018 0.89049,3.084853 0.0276,0.938281 -0.16514,1.75211 -0.57909,2.442023 -0.92448,1.517808 -2.53967,2.31735 -4.84399,2.400139 -1.04866,0.0414 -2.2007,-0.21291 -3.45634,-0.764839 l 0.0419,-3.126737 c 0.20698,0.165579 0.47557,0.360141 0.80673,0.580914 0.59333,0.400149 1.26351,0.599124 2.00861,0.599124 1.97315,0 2.9592,-0.703171 2.9592,-2.110593 l 0,-0.04188 c 0,-0.648518 -0.35873,-1.179468 -1.07624,-1.593416 -0.38635,-0.220772 -1.1038,-0.483131 -2.15247,-0.786692 -0.41395,-0.124184 -0.86281,-0.275884 -1.34576,-0.455261 -1.69718,-0.95208 -2.54582,-2.331668 -2.54582,-4.13924 l 0,-0.123831 c 0,-0.827895 0.22757,-1.600683 0.68289,-2.318192 0.45534,-0.731308 1.05592,-1.297066 1.80102,-1.697216 0.7589,-0.413948 1.57274,-0.635264 2.44203,-0.66286 z m 6.67595,0 2.79349,0 0,5.650708 5.52687,0 0,-5.650708 2.79348,0 0,16.393061 -2.79348,0 0,-7.823216 -5.52687,0 0,7.823216 -2.79349,0 0,-16.393061 z m 20.87283,0 c 2.33191,0 4.29778,0.807596 5.89837,2.421992 1.6144,1.614395 2.422,3.588317 2.422,5.920222 0,2.318107 -0.8076,4.283974 -2.422,5.89837 -1.61439,1.614395 -3.58026,2.421991 -5.89837,2.421992 -2.3319,0 -4.30582,-0.801363 -5.92022,-2.40196 -1.61439,-1.614397 -2.42017,-3.586497 -2.42017,-5.918402 0,-2.331905 0.80578,-4.305827 2.42017,-5.920222 1.6144,-1.614396 3.58832,-2.421992 5.92022,-2.421992 z m 8.30033,0 3.14677,0 2.87725,9.686147 4.46885,-8.981402 4.34684,8.85757 3.06301,-9.562315 3.06482,0 -5.83828,16.413092 -4.73836,-9.686146 -4.82395,9.666115 -5.56695,-16.393061 z m -8.30033,2.795307 c -1.5592,0 -2.87722,0.537182 -3.95348,1.613446 -1.06248,1.062467 -1.59343,2.374258 -1.59343,3.933461 0,1.545404 0.53719,2.855376 1.61345,3.931639 1.07627,1.062466 2.38806,1.593417 3.93346,1.593417 1.54541,0 2.84915,-0.530951 3.91161,-1.593417 1.07627,-1.076263 1.61527,-2.386235 1.61527,-3.931639 0,-1.545405 -0.539,-2.857196 -1.61527,-3.933461 -1.06246,-1.076264 -2.3662,-1.613446 -3.91161,-1.613446 z m 26.77303,20.841877 4.274,0 0,3.614777 -4.274,0 0,-3.614777 z m -60.71187,0.1384 4.274,0 0,3.616598 -4.274,0 0,-3.616598 z m 10.25978,0.02185 4.27581,0 0,3.614777 -4.27581,0 0,-3.614777 z m 41.05731,0.0036 4.274,0 0,3.616598 -4.274,0 0,-3.616598 z m -30.90498,0.0091 4.27399,0 0,3.616599 -4.27399,0 0,-3.616599 z m 10.25978,0.02186 4.27581,0 0,3.614778 -4.27581,0 0,-3.614778 z m 10.27981,0.02914 4.27399,0 0,3.614777 -4.27399,0 0,-3.614777 z"
     id="rect4564-2"
     inkscape:connector-curvature="0" />
  <g
     id="g4151"
     transform="translate(-0.04419417,-4.3535534)">
    <path
       inkscape:connector-curvature="0"
       id="path4258-3"
       d="m 149.36133,23.576172 a 5.9036384,5.9036384 0 0 0 -5.90235,5.904297 5.9036384,5.9036384 0 0 0 5.90235,5.904297 5.9036384,5.9036384 0 0 0 5.90429,-5.904297 5.9036384,5.9036384 0 0 0 -0.71484,-2.802735 2.2951701,2.2951701 0 0 1 -1.86523,0.960938 2.2951701,2.2951701 0 0 1 -2.29493,-2.294922 2.2951701,2.2951701 0 0 1 0.59376,-1.535156 5.9036384,5.9036384 0 0 0 -1.62305,-0.232422 z"
       style="opacity:1;fill:#000000;fill-opacity:1;stroke:none;stroke-width:11;stroke-linecap:round;stroke-linejoin:round;stroke-miterlimit:4;stroke-dasharray:none;stroke-opacity:1" />
    <path
       inkscape:connector-curvature="0"
       id="path4258-3-7"
       d="m 110.375,23.542969 a 5.9036384,5.9036384 0 0 0 -5.90234,5.904297 5.9036384,5.9036384 0 0 0 5.90234,5.904296 5.9036384,5.9036384 0 0 0 5.9043,-5.904296 5.9036384,5.9036384 0 0 0 -0.94336,-3.201172 2.2951701,2.2951701 0 0 1 -1.91797,1.039062 2.2951701,2.2951701 0 0 1 -2.29492,-2.294922 2.2951701,2.2951701 0 0 1 0.42383,-1.328125 5.9036384,5.9036384 0 0 0 -1.17188,-0.11914 z"
       style="opacity:1;fill:#000000;fill-opacity:1;stroke:none;stroke-width:11;stroke-linecap:round;stroke-linejoin:round;stroke-miterlimit:4;stroke-dasharray:none;stroke-opacity:1" />
    <path
       sodipodi:nodetypes="cccccc"
       inkscape:connector-curvature="0"
       id="path4205"
       d="m 121.18046,8.864146 c 2.48715,0.867651 4.96024,2.082731 6.71082,4.107516 0.95854,1.090872 1.68569,2.358766 2.35168,3.642484 -1.38893,-2.405345 -3.53981,-4.788546 -6.58109,-6.276755 -1.01433,-0.484185 -2.10886,-0.815841 -3.23141,-0.910745 z"
       style="fill:#000000;fill-opacity:1;fill-rule:evenodd;stroke:#000000;stroke-width:0.30000001;stroke-linecap:round;stroke-linejoin:miter;stroke-miterlimit:4;stroke-dasharray:none;stroke-opacity:1" />
    <path
       inkscape:connector-curvature="0"
       id="text4156-6-3"
       d="m 110.48828,9.080078 c -4.25471,0.0024 -8.0966,1.217074 -11.52734,3.644531 -3.41372,2.380442 -5.84484,5.570025 -7.29102,9.566407 -1.88853,5.218806 -1.68575,10.315633 0.60742,15.292968 2.34019,4.994349 6.14434,8.446012 11.41016,10.351563 5.82586,2.10821 11.41633,1.634579 16.77344,-1.417969 l 0.008,-0.01367 c 0,0 7.13021,4.211634 10.12305,6.164063 l 0.0176,0 -0.0137,-23.550781 c -0.002,-4.254703 -1.21707,-8.096608 -3.64453,-11.527344 -2.36343,-3.460739 -5.54463,-5.913198 -9.54101,-7.359375 -2.11574,-0.765623 -4.42288,-1.150017 -6.92188,-1.150391 z M 110.2832,19.125 c 1.15659,-2.02e-4 2.35176,0.223308 3.58594,0.669922 2.02169,0.731595 3.61322,1.919669 4.77344,3.5625 2.01639,2.803423 2.42925,5.849486 1.23828,9.140625 -0.93576,2.585894 -2.65321,4.464671 -5.15039,5.634765 -2.48016,1.123079 -5.01177,1.217013 -7.59766,0.28125 -1.88065,-0.680554 -3.44049,-1.883547 -4.67773,-3.607421 -2.01639,-2.803424 -2.43763,-5.826191 -1.26367,-9.070313 0.69757,-1.927667 1.90894,-3.51081 3.63281,-4.748047 1.71212,-1.24149 3.53133,-1.862945 5.45898,-1.863281 z"
       style="font-style:normal;font-variant:normal;font-weight:normal;font-stretch:normal;font-size:14.70238972px;line-height:125%;font-family:Philosopher;-inkscape-font-specification:Philosopher;letter-spacing:0px;word-spacing:0px;fill:#000000;fill-opacity:1;stroke:none;stroke-width:1px;stroke-linecap:butt;stroke-linejoin:miter;stroke-opacity:1" />
    <path
       inkscape:connector-curvature="0"
       id="text4156-6-3-5"
       d="m 149.0369,49.984523 c -4.25471,-0.002 -8.0966,-1.21708 -11.52734,-3.644536 -3.41372,-2.38044 -5.84484,-5.57002 -7.29102,-9.5664 -1.88853,-5.21881 -1.68575,-10.31564 0.60742,-15.29297 2.34019,-4.99435 6.14434,-8.44601 11.41016,-10.35156 5.82586,-2.10821 11.41633,-1.63458 16.77344,1.41797 l 0.008,0.0137 c 0,0 7.13021,-4.21164 10.12305,-6.16407 l 0.0176,0 -0.0137,23.55078 c -0.002,4.25471 -1.21707,8.09661 -3.64453,11.52735 -2.36343,3.46074 -5.54463,5.9132 -9.54101,7.359366 -2.11574,0.76563 -4.42288,1.15002 -6.92188,1.15039 z m -0.20508,-10.044926 c 1.15659,2.1e-4 2.35176,-0.2233 3.58594,-0.66992 2.02169,-0.73159 3.61322,-1.91967 4.77344,-3.5625 2.01639,-2.80342 2.42925,-5.84948 1.23828,-9.14062 -0.93576,-2.5859 -2.65321,-4.46467 -5.15039,-5.63477 -2.48016,-1.12308 -5.01177,-1.21701 -7.59766,-0.28125 -1.88065,0.68056 -3.44049,1.88355 -4.67773,3.60742 -2.01639,2.80343 -2.43763,5.82619 -1.26367,9.07032 0.69757,1.92766 1.90894,3.51081 3.63281,4.74804 1.71212,1.24149 3.53133,1.86295 5.45898,1.86328 z"
       style="font-style:normal;font-variant:normal;font-weight:normal;font-stretch:normal;font-size:14.70238972px;line-height:125%;font-family:Philosopher;-inkscape-font-specification:Philosopher;letter-spacing:0px;word-spacing:0px;fill:#000000;fill-opacity:1;stroke:none;stroke-width:1px;stroke-linecap:butt;stroke-linejoin:miter;stroke-opacity:1" />
    <path
       sodipodi:nodetypes="cccccc"
       inkscape:connector-curvature="0"
       id="path4205-2"
       d="m 139.33126,8.874584 c -2.48715,0.867651 -4.96024,2.082731 -6.71082,4.107516 -0.95854,1.090872 -1.68569,2.358766 -2.35168,3.642484 1.38893,-2.405345 3.53981,-4.788546 6.58109,-6.276755 1.01433,-0.484185 2.10886,-0.815841 3.23141,-0.910745 z"
       style="fill:#000000;fill-opacity:1;fill-rule:evenodd;stroke:#000000;stroke-width:0.30000001;stroke-linecap:round;stroke-linejoin:miter;stroke-miterlimit:4;stroke-dasharray:none;stroke-opacity:1" />
  </g>
</svg>
